<?xml version="1.0" encoding="iso-8859-1"?>
<!-- Uploaded to: SVG Repo, www.svgrepo.com, Generator: SVG Repo Mixer Tools -->
<!DOCTYPE svg PUBLIC "-//W3C//DTD SVG 1.1//EN" "http://www.w3.org/Graphics/SVG/1.1/DTD/svg11.dtd">
<svg fill="#000000" version="1.1" id="Capa_1" xmlns="http://www.w3.org/2000/svg" xmlns:xlink="http://www.w3.org/1999/xlink" 
	 width="800px" height="800px" viewBox="0 0 202.149 202.148"
	 xml:space="preserve">
<g>
	<g>
		<path d="M127.739,3.765V18.94c22.63,0.81,69.501,25.441,74.41,82.242C202.149,54.605,170.594,15.479,127.739,3.765z"/>
		<path d="M53.553,47.648c0,0,9.227,0,20.877,0l24.832,24.824h10.139L95.305,47.648c9.848,0,18.841,0,23.425,0
			c52.141,0,52.998,70.118,0,70.118c68.423,0,70.599-85.504,0-85.504c-8.992,0-16.735,0-23.432,0L109.401,7.43H99.262L74.43,32.261
			c-16.981,0-20.332,0-20.865,0c-6.366,0-22.217,4.795-22.259,7.685C31.252,42.851,47.191,47.648,53.553,47.648z"/>
		<path d="M0,100.982c0,46.587,31.559,85.688,74.422,97.401v-15.181C51.79,182.39,4.915,157.768,0,100.982z"/>
		<path d="M148.589,154.526c0,0-9.221,0-20.867,0l-24.821-24.843H92.752l14.104,24.843c-9.848,0-18.837,0-23.421,0
			c-52.128,0-52.998-70.122,0-70.122c-68.423,0-70.601,85.498,0,85.498c8.997,0,16.733,0,23.433,0L92.76,194.74h10.141
			l24.838-24.838c16.987,0,20.329,0,20.866,0c6.38,0,22.218-4.793,22.266-7.69C170.899,159.314,154.953,154.526,148.589,154.526z"/>
		<path d="M101.074,83.925c9.478,0,17.159,7.68,17.159,17.158c0,9.466-7.682,17.147-17.159,17.147
			c-9.472,0-17.152-7.682-17.152-17.147C83.921,91.605,91.602,83.925,101.074,83.925z"/>
	</g>
</g>
</svg>